<svg width="118" height="41" viewBox="0 0 118 41" fill="none" xmlns="http://www.w3.org/2000/svg">
<path d="M20.9707 25.4904H31.8567C31.8567 25.4904 30.22 35.5805 12.0039 37.2557C12.0039 37.2557 25.1107 44.6371 33.9749 34.1748V38.8925C37.6592 38.931 40.6695 35.9527 40.6695 32.262V18.8535H27.5947C23.9297 18.8535 20.9643 21.8253 20.9643 25.484L20.9707 25.4904Z" fill="black"/>
<path d="M7.18244 17.2148C7.18244 17.6063 7.18244 17.985 7.18244 18.3765C7.18244 18.7681 7.18244 19.1275 7.18244 19.519V34.9237C3.83192 32.2022 0 29.2689 0 27.215V7.24021C0 3.26708 3.20931 0.0320931 7.18244 0V6.33518V17.1698C7.18244 17.1827 7.18244 17.2019 7.18244 17.2212V17.2148Z" fill="black"/>
<path d="M61.2025 16.608C61.3758 17.3783 61.7417 17.9816 62.3065 18.4181C62.8713 18.8545 63.5453 19.0792 64.3155 19.0792C65.3104 19.0792 66.1641 18.7518 66.8766 18.0907L68.1346 19.9136C67.6211 20.3886 67.0306 20.7545 66.3567 21.0176C65.6827 21.2808 64.9574 21.4092 64.1615 21.4092C63.1088 21.4092 62.1653 21.1588 61.318 20.6518C60.4708 20.1447 59.8097 19.4643 59.3283 18.5978C58.8469 17.7313 58.6094 16.7877 58.6094 15.7672C58.6094 14.7466 58.834 13.7838 59.2897 12.9173C59.7455 12.0508 60.3745 11.3704 61.1768 10.8634C61.9856 10.3563 62.8842 10.106 63.8855 10.106C64.9895 10.106 65.9459 10.3434 66.7482 10.8184C67.5505 11.2934 68.1603 11.9545 68.5775 12.8018C68.9947 13.6426 69.2065 14.6118 69.2065 15.6966C69.2065 16.0239 69.1873 16.332 69.1423 16.6144H61.1961L61.2025 16.608ZM62.2231 12.9687C61.7288 13.3602 61.3951 13.9122 61.2218 14.6118H66.6776C66.5171 13.8994 66.209 13.3474 65.7469 12.9622C65.2847 12.5771 64.7006 12.3781 63.9946 12.3781C63.2886 12.3781 62.7173 12.5771 62.2231 12.9687Z" fill="black"/>
<path d="M76.6645 21.1145H74.1035L69.7324 10.3184H72.6144L75.3937 18.1427L78.1729 10.3184H81.0677L76.671 21.1145H76.6645Z" fill="black"/>
<path d="M88.2826 21.1145H85.7216L81.3505 10.3184H84.2325L87.0118 18.1427L89.791 10.3184H92.6858L88.2891 21.1145H88.2826Z" fill="black"/>
<path d="M69.2527 28.2772C69.6764 28.4185 70.0871 28.6303 70.4851 28.9063L69.3233 31.0437C68.7906 30.665 68.2386 30.4788 67.6737 30.4788C67.2758 30.4853 66.8971 30.6136 66.5441 30.8575C66.1846 31.1014 65.8958 31.4416 65.6776 31.8845C65.4529 32.3274 65.3374 32.8409 65.3245 33.425V39.0734H62.6993V28.2901H64.9522L65.1384 29.7407C65.4401 29.2144 65.838 28.8036 66.3258 28.5083C66.8137 28.2131 67.3721 28.0654 68.0011 28.0654C68.4119 28.0654 68.8291 28.136 69.2591 28.2837L69.2527 28.2772Z" fill="black"/>
<path d="M72.9506 38.6183C72.0841 38.1112 71.3973 37.4308 70.8902 36.5707C70.3831 35.7106 70.1328 34.7671 70.1328 33.7337C70.1328 32.7003 70.3831 31.7439 70.8902 30.871C71.3973 29.9981 72.0841 29.3113 72.9506 28.8106C73.8235 28.3035 74.7799 28.0532 75.8325 28.0532C76.8852 28.0532 77.8416 28.31 78.7145 28.817C79.5874 29.3241 80.2742 30.0109 80.7749 30.8774C81.2819 31.7439 81.5323 32.7003 81.5323 33.7337C81.5323 34.7671 81.2819 35.7106 80.7749 36.5772C80.2678 37.4437 79.581 38.124 78.7081 38.6247C77.8351 39.1253 76.8659 39.3757 75.8133 39.3757C74.7606 39.3757 73.8171 39.1254 72.9442 38.6183H72.9506ZM77.3987 36.4873C77.8672 36.2113 78.2395 35.8262 78.5155 35.3384C78.7915 34.8505 78.9263 34.3114 78.9263 33.7209C78.9263 33.1304 78.7915 32.5848 78.5155 32.097C78.2395 31.6091 77.8672 31.224 77.3923 30.9416C76.9173 30.6592 76.4038 30.518 75.839 30.518C75.2741 30.518 74.7478 30.6592 74.2792 30.9416C73.8107 31.224 73.4384 31.6091 73.1624 32.097C72.8864 32.5848 72.7516 33.1239 72.7516 33.7209C72.7516 34.3178 72.8864 34.857 73.1624 35.3448C73.4384 35.8262 73.8107 36.2113 74.2792 36.4873C74.7478 36.7633 75.2677 36.9045 75.839 36.9045C76.4102 36.9045 76.9301 36.7633 77.3987 36.4873Z" fill="black"/>
<path d="M93.3609 36.1016L96.1723 28.2773H99.035L94.8436 39.0735H92.4046L90.5817 34.3494L88.8101 39.0735H86.2363L82.0449 28.2773H84.8563L87.5328 36.1016L90.0553 28.2773H92.8539L91.6472 31.4867L93.3545 36.0952L93.3609 36.1016Z" fill="black"/>
<path d="M103.509 39.0732H100.878V30.6969H99.337V28.2771H100.871V25.7032L103.516 25.0742V28.2771H105.89V30.6969H103.516V39.0732H103.509Z" fill="black"/>
<path d="M115.601 28.6049C116.243 28.9707 116.744 29.5035 117.09 30.2031C117.443 30.9027 117.617 31.7307 117.617 32.7V39.0801H114.985V33.1621C114.985 32.3084 114.78 31.6537 114.362 31.1852C113.945 30.7166 113.368 30.4855 112.617 30.4855C112.129 30.4855 111.679 30.6011 111.275 30.8386C110.864 31.0696 110.543 31.3906 110.312 31.7885C110.081 32.1865 109.959 32.6229 109.959 33.1043V39.0865H107.347V23.6689H109.959V29.465C110.376 29.0478 110.89 28.7076 111.506 28.4508C112.116 28.1941 112.732 28.0657 113.348 28.0657C114.208 28.0657 114.959 28.2518 115.601 28.6177V28.6049Z" fill="black"/>
<path d="M53.4432 21.7689L50.4778 16.3901H49.6434V21.7689H46.1709V7.51953H51.999C53.1223 7.51953 54.0786 7.71851 54.8681 8.11004C55.6576 8.50158 56.2545 9.04074 56.6461 9.72112C57.0376 10.4015 57.2366 11.1653 57.2366 12.0062C57.2366 12.9561 56.967 13.7969 56.4343 14.5415C55.9015 15.2861 55.112 15.8124 54.0722 16.1269L57.3585 21.7689H53.4432ZM49.6434 13.9382H51.7936C52.429 13.9382 52.904 13.7841 53.225 13.4696C53.5459 13.1615 53.6999 12.7186 53.6999 12.1474C53.6999 11.5761 53.5395 11.1781 53.225 10.8701C52.904 10.562 52.429 10.4015 51.7936 10.4015H49.6434V13.9317V13.9382Z" fill="black"/>
<path d="M55.6317 30.2549C55.375 29.7799 55.0027 29.4204 54.5277 29.1701C54.0463 28.9198 53.4815 28.7914 52.8332 28.7914C51.7099 28.7914 50.8113 29.1573 50.1309 29.8954C49.457 30.6336 49.1168 31.6156 49.1168 32.848C49.1168 34.1638 49.4698 35.1844 50.1823 35.9225C50.8948 36.6607 51.8704 37.0265 53.1156 37.0265C53.9693 37.0265 54.6882 36.8083 55.2787 36.3782C55.8692 35.9482 56.2992 35.3256 56.5688 34.5104H52.1656V31.9558H59.7139V35.1844C59.4572 36.0509 59.0207 36.8532 58.4045 37.5978C57.7884 38.3423 57.0053 38.9457 56.0618 39.4014C55.1118 39.8635 54.0463 40.0946 52.8524 40.0946C51.4468 40.0946 50.1887 39.7865 49.0847 39.1703C47.9807 38.5541 47.1206 37.7005 46.5044 36.6029C45.8882 35.5053 45.5801 34.2537 45.5801 32.848C45.5801 31.4423 45.8882 30.1843 46.5044 29.0803C47.1206 27.9763 47.9743 27.1162 49.0719 26.5C50.1695 25.8838 51.4211 25.5757 52.8268 25.5757C54.5341 25.5757 55.9719 25.9865 57.1401 26.8145C58.3083 27.6425 59.0849 28.785 59.4636 30.242H55.6253L55.6317 30.2549Z" fill="black"/>
<path d="M26.5474 7.87105C25.2508 7.59505 23.8387 7.19709 21.7655 7.19709C14.1145 7.19709 7.16315 12.884 7.16315 22.0498V7.02379C9.43535 3.9942 15.578 0.0146484 21.7655 0.0146484C27.3369 0.0146484 31.4448 1.67065 35.2125 4.9249" fill="black"/>
</svg>
